<svg
                xmlns="http://www.w3.org/2000/svg"
                width="45"
                height="45"
                viewBox="0 0 45 45"
                fill="none"
              >
                <g filter="url(#filter0_d_108_15)">
                  <path
                    fill-rule="evenodd"
                    clip-rule="evenodd"
                    d="M20.5 2C11.3873 2 4 9.3873 4 18.5C4 27.6127 11.3873 35 20.5 35C29.6127 35 37 27.6127 37 18.5C37 9.3873 29.6127 2 20.5 2ZM22.6532 18.5074L16.4664 12.7785C15.8445 12.2027 15.8605 11.2577 16.4664 10.6819C17.0883 10.106 18.0928 10.106 18.7147 10.6819L26.0336 17.4591C26.6555 18.0349 26.6555 18.9651 26.0336 19.5409L18.7147 26.3181C18.0928 26.894 17.0883 26.894 16.4664 26.3181C15.8445 25.7423 15.8445 24.8121 16.4664 24.2362L22.6532 18.5074Z"
                    fill="white"
                  />
                </g>
                <defs>
                  <filter
                    id="filter0_d_108_15"
                    x="0"
                    y="0"
                    width="45"
                    height="45"
                    filterUnits="userSpaceOnUse"
                    color-interpolation-filters="sRGB"
                  >
                    <feFlood flood-opacity="0" result="BackgroundImageFix" />
                    <feColorMatrix
                      in="SourceAlpha"
                      type="matrix"
                      values="0 0 0 0 0 0 0 0 0 0 0 0 0 0 0 0 0 0 127 0"
                      result="hardAlpha"
                    />
                    <feOffset dx="2" dy="4" />
                    <feGaussianBlur stdDeviation="3" />
                    <feComposite in2="hardAlpha" operator="out" />
                    <feColorMatrix
                      type="matrix"
                      values="0 0 0 0 0 0 0 0 0 0 0 0 0 0 0 0 0 0 0.49 0"
                    />
                    <feBlend
                      mode="normal"
                      in2="BackgroundImageFix"
                      result="effect1_dropShadow_108_15"
                    />
                    <feBlend
                      mode="normal"
                      in="SourceGraphic"
                      in2="effect1_dropShadow_108_15"
                      result="shape"
                    />
                  </filter>
                </defs>
              </svg>