<svg width="33" height="26" viewBox="0 0 33 26" fill="none" xmlns="http://www.w3.org/2000/svg">
<g id="MasterCard logo" clip-path="url(#clip0_320_6)">
<path id="Vector" d="M32.3497 25.3779V25.444H32.4113C32.4228 25.4442 32.4342 25.4413 32.4443 25.4356C32.4483 25.4328 32.4515 25.429 32.4537 25.4245C32.4558 25.4201 32.4569 25.4152 32.4567 25.4103C32.4569 25.4055 32.4558 25.4007 32.4537 25.3964C32.4515 25.3921 32.4483 25.3884 32.4443 25.3857C32.4343 25.3797 32.4229 25.3768 32.4113 25.3772H32.3497V25.3779ZM32.4119 25.3311C32.4383 25.3295 32.4644 25.3371 32.4859 25.3526C32.4944 25.3597 32.5013 25.3686 32.5058 25.3788C32.5103 25.389 32.5123 25.4 32.5118 25.4111C32.5122 25.4207 32.5105 25.4302 32.5069 25.4391C32.5033 25.448 32.4979 25.456 32.491 25.4626C32.4745 25.477 32.4537 25.4856 32.4319 25.4872L32.5144 25.5814H32.4509L32.375 25.4879H32.3504V25.5814H32.2973V25.3313H32.4128L32.4119 25.3311ZM32.3954 25.6677C32.4233 25.668 32.4509 25.6624 32.4765 25.6512C32.5011 25.6406 32.5235 25.6254 32.5425 25.6064C32.5615 25.5874 32.5767 25.565 32.5872 25.5403C32.6088 25.4879 32.6088 25.429 32.5872 25.3766C32.5765 25.3519 32.5613 25.3295 32.5425 25.3104C32.5235 25.2915 32.5011 25.2763 32.4765 25.2656C32.4508 25.2551 32.4232 25.2498 32.3954 25.2501C32.3672 25.2498 32.3392 25.2551 32.3129 25.2656C32.2878 25.2761 32.2648 25.2913 32.2455 25.3104C32.2163 25.3405 32.1965 25.3784 32.1887 25.4195C32.1809 25.4607 32.1853 25.5033 32.2014 25.5419C32.2114 25.5667 32.2264 25.5892 32.2455 25.6081C32.2649 25.6272 32.2878 25.6424 32.3129 25.6529C32.339 25.664 32.3671 25.6697 32.3954 25.6694M32.3954 25.1899C32.468 25.1898 32.5376 25.2184 32.5893 25.2693C32.6143 25.2937 32.6341 25.3229 32.6477 25.3551C32.6618 25.3881 32.6691 25.4237 32.6691 25.4597C32.6691 25.4956 32.6618 25.5312 32.6477 25.5642C32.6338 25.5963 32.614 25.6254 32.5893 25.6501C32.564 25.6744 32.5346 25.694 32.5024 25.7079C32.4686 25.7223 32.4322 25.7296 32.3954 25.7294C32.3583 25.7297 32.3215 25.7224 32.2872 25.7079C32.2546 25.6943 32.2249 25.6747 32.1996 25.6501C32.1749 25.6245 32.1554 25.5944 32.142 25.5614C32.1279 25.5284 32.1206 25.4928 32.1206 25.4569C32.1206 25.4209 32.1279 25.3853 32.142 25.3523C32.1556 25.3201 32.1755 25.2909 32.2004 25.2665C32.2254 25.2414 32.2552 25.2217 32.288 25.2086C32.3223 25.1942 32.3591 25.1868 32.3963 25.1871M7.13064 24.2239C7.13064 23.7469 7.44249 23.355 7.95218 23.355C8.43926 23.355 8.76794 23.73 8.76794 24.2239C8.76794 24.7177 8.43926 25.0927 7.95218 25.0927C7.44249 25.0927 7.13064 24.7009 7.13064 24.2239ZM9.32316 24.2239V22.8664H8.73427V23.1971C8.54749 22.9527 8.26419 22.7995 7.87892 22.7995C7.11992 22.7995 6.52427 23.396 6.52427 24.2245C6.52427 25.053 7.11959 25.6496 7.87892 25.6496C8.26403 25.6496 8.54749 25.4961 8.73427 25.2519V25.5814H9.3225V24.2239H9.32316ZM29.2208 24.2239C29.2208 23.7469 29.5327 23.355 30.0425 23.355C30.5301 23.355 30.8583 23.73 30.8583 24.2239C30.8583 24.7177 30.5301 25.0927 30.0425 25.0927C29.5329 25.0927 29.2208 24.7009 29.2208 24.2239ZM31.414 24.2239V21.7769H30.8246V23.1971C30.6379 22.9527 30.3546 22.7995 29.9693 22.7995C29.2103 22.7995 28.6146 23.396 28.6146 24.2245C28.6146 25.053 29.2099 25.6496 29.9693 25.6496C30.3546 25.6496 30.6379 25.4961 30.8246 25.2519V25.5814H31.414V24.2239ZM16.632 23.3271C17.0115 23.3271 17.2552 23.5655 17.3174 23.9853H15.9123C15.9751 23.5934 16.2126 23.3271 16.6322 23.3271M16.6439 22.798C15.8502 22.798 15.295 23.3767 15.295 24.223C15.295 25.0859 15.8725 25.6481 16.6833 25.6481C17.0912 25.6481 17.4648 25.5461 17.7934 25.2678L17.5049 24.8305C17.2778 25.0123 16.9887 25.1144 16.717 25.1144C16.3375 25.1144 15.992 24.9383 15.907 24.4497H17.9178C17.9236 24.3763 17.9296 24.3022 17.9296 24.2229C17.9236 23.3768 17.4016 22.7978 16.6435 22.7978M23.7534 24.2229C23.7534 23.7459 24.0653 23.354 24.5749 23.354C25.062 23.354 25.3907 23.729 25.3907 24.2229C25.3907 24.7167 25.062 25.0917 24.5749 25.0917C24.0653 25.0917 23.7532 24.6999 23.7532 24.2229M25.9458 24.2229V22.8664H25.3572V23.1971C25.1698 22.9527 24.8871 22.7995 24.5018 22.7995C23.7428 22.7995 23.1472 23.396 23.1472 24.2245C23.1472 25.053 23.7425 25.6496 24.5018 25.6496C24.8871 25.6496 25.1698 25.4961 25.3572 25.2519V25.5814H25.9459V24.2239L25.9458 24.2229ZM20.4278 24.2229C20.4278 25.0461 20.9997 25.6479 21.8726 25.6479C22.2804 25.6479 22.5522 25.557 22.8461 25.3243L22.5633 24.8473C22.3422 25.0066 22.11 25.0917 21.8538 25.0917C21.3837 25.0859 21.038 24.7453 21.038 24.2229C21.038 23.7004 21.3837 23.36 21.8538 23.354C22.1093 23.354 22.3415 23.4392 22.5633 23.5984L22.8461 23.1214C22.5517 22.8888 22.28 22.7978 21.8726 22.7978C20.9997 22.7978 20.4278 23.3995 20.4278 24.2229ZM28.0195 22.7978C27.6797 22.7978 27.4585 22.957 27.3055 23.1955V22.8664H26.7219V25.58H27.3115V24.0588C27.3115 23.6098 27.504 23.3603 27.889 23.3603C28.015 23.3585 28.1402 23.3817 28.2572 23.4286L28.4387 22.8724C28.3084 22.821 28.1384 22.7983 28.0191 22.7983M12.2346 23.0822C11.9513 22.895 11.5609 22.7983 11.1302 22.7983C10.4442 22.7983 10.0025 23.1278 10.0025 23.667C10.0025 24.1094 10.3313 24.3824 10.9369 24.4676L11.2151 24.5072C11.538 24.5527 11.6904 24.6379 11.6904 24.7911C11.6904 25.0009 11.4759 25.1206 11.0731 25.1206C10.6653 25.1206 10.3709 24.99 10.1724 24.8368L9.89571 25.2969C10.2186 25.5353 10.6265 25.6491 11.0682 25.6491C11.8503 25.6491 12.3036 25.28 12.3036 24.7633C12.3036 24.2863 11.9468 24.0369 11.3574 23.9517L11.0799 23.9114C10.825 23.8783 10.6207 23.8269 10.6207 23.645C10.6207 23.4466 10.8133 23.3272 11.1363 23.3272C11.482 23.3272 11.8166 23.4578 11.9806 23.5599L12.2356 23.0829L12.2346 23.0822ZM19.833 22.7988C19.4933 22.7988 19.272 22.958 19.1197 23.1964V22.8664H18.5361V25.58H19.125V24.0588C19.125 23.6098 19.3175 23.3603 19.7025 23.3603C19.8285 23.3585 19.9537 23.3817 20.0708 23.4286L20.2523 22.8724C20.1219 22.821 19.952 22.7983 19.8327 22.7983M14.8078 22.8664H13.8448V22.0432H13.2495V22.8664H12.7002V23.4058H13.2495V24.6436C13.2495 25.2732 13.4934 25.6482 14.19 25.6482C14.4456 25.6482 14.7399 25.5689 14.9267 25.4384L14.7566 24.9332C14.5809 25.0352 14.3883 25.0866 14.2352 25.0866C13.9409 25.0866 13.8448 24.9047 13.8448 24.6324V23.4063H14.8078V22.8664ZM6.00353 25.5806V23.8776C6.00353 23.2363 5.59565 22.8048 4.93812 22.799C4.59245 22.7932 4.23588 22.901 3.98624 23.2818C3.79946 22.9808 3.5051 22.799 3.09128 22.799C2.80203 22.799 2.51939 22.8841 2.29812 23.2019V22.8664H1.70874V25.58H2.30274V24.0754C2.30274 23.6043 2.56344 23.354 2.96604 23.354C3.35709 23.354 3.55493 23.6095 3.55493 24.0694V25.5796H4.15025V24.075C4.15025 23.604 4.422 23.3537 4.81289 23.3537C5.21499 23.3537 5.40689 23.6091 5.40689 24.0691V25.5793L6.00353 25.5806Z" fill="#CBCBCB"/>
<path id="Vector_2" d="M32.6855 16.554V16.1572H32.5824L32.4631 16.4295L32.3445 16.1572H32.241V16.554H32.3143V16.2551L32.4258 16.513H32.5017L32.6132 16.2544V16.554H32.6858H32.6855ZM32.0313 16.554V16.2252H32.1633V16.1582H31.826V16.2252H31.958V16.554H32.0306H32.0313Z" fill="#F79410"/>
<path id="Vector_3" d="M20.9644 18.2559H12.0402V2.18506H20.9646L20.9644 18.2559Z" fill="#FF5F00"/>
<path id="Vector_4" d="M12.606 10.2202C12.606 6.96024 14.1293 4.05625 16.5013 2.18479C14.7058 0.766106 12.485 -0.00386261 10.1985 -0.000477165C4.56588 -0.000477165 0 4.57541 0 10.2202C0 15.865 4.56588 20.4409 10.1985 20.4409C12.4851 20.4443 14.7059 19.6743 16.5015 18.2556C14.1296 16.3845 12.606 13.4803 12.606 10.2202Z" fill="#EB001B"/>
<path id="Vector_5" d="M33.0041 10.2207C33.0041 15.8655 28.4382 20.4414 22.8056 20.4414C20.5188 20.4447 18.2977 19.6748 16.5018 18.2561C18.8745 16.3846 20.3978 13.4808 20.3978 10.2207C20.3978 6.96056 18.8745 4.05673 16.5018 2.18528C18.2977 0.766637 20.5187 -0.00331499 22.8055 1.07287e-05C28.4381 1.07287e-05 33.004 4.57589 33.004 10.2207" fill="#F79E1B"/>
</g>
<defs>
<clipPath id="clip0_320_6">
<rect width="33" height="25.7265" fill="white"/>
</clipPath>
</defs>
</svg>
