<svg width="33" height="22" viewBox="0 0 33 22" fill="none" xmlns="http://www.w3.org/2000/svg">
<g id="visa logo" clip-path="url(#clip0_320_30)">
<path id="Vector" d="M1.69231 0H31.3077C32.2424 0 33 0.757689 33 1.69231V19.4615C33 20.3962 32.2424 21.1538 31.3077 21.1538H1.69231C0.757689 21.1538 0 20.3962 0 19.4615V1.69231C0 0.757689 0.757689 0 1.69231 0Z" fill="#0E4595"/>
<path id="Vector_2" d="M12.4046 14.7542L13.816 6.47205H16.0736L14.6611 14.7542H12.4046ZM22.817 6.65059C22.3698 6.4828 21.6689 6.30273 20.7937 6.30273C18.5631 6.30273 16.9917 7.426 16.9784 9.03594C16.9658 10.2261 18.1002 10.8899 18.9564 11.2861C19.8352 11.6921 20.1305 11.9509 20.1264 12.3135C20.1208 12.8686 19.4246 13.1222 18.7758 13.1222C17.8723 13.1222 17.3922 12.9967 16.6508 12.6875L16.3599 12.5559L16.0431 14.4099C16.5704 14.6411 17.5454 14.8414 18.5578 14.8518C20.9308 14.8518 22.4712 13.7414 22.4888 12.0221C22.4972 11.08 21.8958 10.363 20.5934 9.77188C19.8044 9.38878 19.3211 9.13308 19.3262 8.74516C19.3262 8.4009 19.7353 8.03274 20.619 8.03274C21.3573 8.02131 21.8921 8.1823 22.3087 8.35005L22.511 8.44566L22.817 6.65059ZM28.6262 6.47192H26.8818C26.3414 6.47192 25.937 6.61945 25.6997 7.15875L22.3471 14.7487H24.7176C24.7176 14.7487 25.1051 13.7282 25.1928 13.5041C25.4519 13.5041 27.7547 13.5077 28.084 13.5077C28.1515 13.7976 28.3586 14.7487 28.3586 14.7487H30.4534L28.6262 6.47167V6.47192ZM25.8586 11.82C26.0452 11.3429 26.758 9.50483 26.758 9.50483C26.7446 9.52692 26.9433 9.02532 27.0573 8.71436L27.2098 9.42847C27.2098 9.42847 27.6422 11.4055 27.7325 11.82H25.8586ZM10.4882 6.47192L8.27801 12.12L8.04248 10.9722C7.63104 9.6491 6.34912 8.21563 4.91603 7.49797L6.9369 14.741L9.32542 14.7383L12.8794 6.47184H10.4882" fill="white"/>
<path id="Vector_3" d="M6.21585 6.47136H2.57566L2.54684 6.64368C5.37884 7.32923 7.25273 8.98596 8.03077 10.9764L7.23919 7.17041C7.10254 6.64601 6.70624 6.48951 6.21594 6.47119" fill="#F2AE14"/>
</g>
<defs>
<clipPath id="clip0_320_30">
<rect width="33" height="21.1538" fill="white"/>
</clipPath>
</defs>
</svg>
